<svg id="_x31__x2C_5" enable-background="new 0 0 24 24" height="512" viewBox="0 0 24 24" width="512" xmlns="http://www.w3.org/2000/svg"><g><path d="m16.25 3.457c0-1.398-1.123-2.53-2.507-2.53h-10.486c-1.385 0-2.507 1.133-2.507 2.53v14.263c0 1.398 1.123 2.53 2.507 2.53h11.169c1.007 0 1.824-.824 1.824-1.84z" fill="#eceff1"/></g><g><circle cx="8.5" cy="5" fill="#90a4ae" r="1.8"/></g><g><path d="m11.425 11.8h-5.85c-.373 0-.675-.302-.675-.675v-.45c0-1.365 1.11-2.475 2.475-2.475h2.25c1.365 0 2.475 1.11 2.475 2.475v.45c0 .373-.302.675-.675.675z" fill="#90a4ae"/></g><g><path d="m22.789 13.712-1.114-1.114c-.441-.441-1.247-.663-2.068.159l-6.682 6.682c-.098.098-.163.224-.187.36l-.477 2.705c-.081.454.312.862.781.782l2.704-.477c.137-.024.263-.09.36-.188l6.682-6.682c.615-.614.615-1.613.001-2.227z" fill="#2196f3"/></g><g><path d="m12.25 24c-.197 0-.389-.078-.53-.22-.178-.177-.254-.432-.205-.677l.67-3.351c.029-.146.101-.279.205-.383l7.372-7.372c.662-.661 1.738-.661 2.4 0l1.341 1.341c.662.662.662 1.739 0 2.401l-7.372 7.372c-.104.105-.238.176-.383.205l-3.351.67c-.049.009-.098.014-.147.014zm3.351-1.42h.01zm-1.991-2.311-.404 2.025 2.024-.405 7.212-7.211c.065-.066.065-.214 0-.28l-1.341-1.34c-.076-.076-.203-.077-.279 0z"/></g><g><path d="m12.25 15h-7.5c-.414 0-.75-.336-.75-.75s.336-.75.75-.75h7.5c.414 0 .75.336.75.75s-.336.75-.75.75z"/></g><g><path d="m11.25 18h-6.5c-.414 0-.75-.336-.75-.75s.336-.75.75-.75h6.5c.414 0 .75.336.75.75s-.336.75-.75.75z"/></g><g><path d="m8.5 7c-1.103 0-2-.897-2-2s.897-2 2-2 2 .897 2 2-.897 2-2 2zm0-2.5c-.275 0-.5.224-.5.5s.225.5.5.5.5-.224.5-.5-.225-.5-.5-.5z"/></g><g><path d="m11.75 12c-.414 0-.75-.336-.75-.75v-.5c0-.689-.561-1.25-1.25-1.25h-2.5c-.689 0-1.25.561-1.25 1.25v.5c0 .414-.336.75-.75.75s-.75-.336-.75-.75v-.5c0-1.517 1.233-2.75 2.75-2.75h2.5c1.517 0 2.75 1.233 2.75 2.75v.5c0 .414-.336.75-.75.75z"/></g><g><path d="m9.25 21h-6.5c-1.517 0-2.75-1.233-2.75-2.75v-15.5c0-1.517 1.233-2.75 2.75-2.75h11.5c1.517 0 2.75 1.233 2.75 2.75v8.5c0 .414-.336.75-.75.75s-.75-.336-.75-.75v-8.5c0-.689-.561-1.25-1.25-1.25h-11.5c-.689 0-1.25.561-1.25 1.25v15.5c0 .689.561 1.25 1.25 1.25h6.5c.414 0 .75.336.75.75s-.336.75-.75.75z"/></g></svg>